{"accessors" : [{"bufferView" : 0, "byteOffset" : 0, "componentType" : 5123, "count" : 17538, "type" : "SCALAR", "max" : [17537], "min" : [0]}, {"bufferView" : 1, "byteOffset" : 0, "componentType" : 5126, "count" : 17538, "type" : "VEC3", "max" : [650, 200.00001525878906, 600.0001220703125], "min" : [-650, -224.99996948242188, 0], "name" : "POSITION"}, {"bufferView" : 1, "byteOffset" : 12, "componentType" : 5126, "count" : 17538, "type" : "VEC3", "max" : [1.0000044107437134, 1.0000044107437134, 1.0000044107437134], "min" : [-1.0000044107437134, -1.0000044107437134, -1.0000044107437134], "name" : "NORMAL"}, {"bufferView" : 1, "byteOffset" : 24, "componentType" : 5126, "count" : 17538, "type" : "VEC2", "max" : [8.023695945739746, 2.3612778186798096], "min" : [0.6188037395477295, -4.108333587646484], "name" : "TEXCOORD_0"}, {"bufferView" : 0, "byteOffset" : 35076, "componentType" : 5123, "count" : 66, "type" : "SCALAR", "max" : [65], "min" : [0]}, {"bufferView" : 2, "byteOffset" : 0, "componentType" : 5126, "count" : 66, "type" : "VEC3", "max" : [611.0001220703125, -199.74996948242188, 510.9998474121094], "min" : [-611, -199.99996948242188, 38.999755859375], "name" : "POSITION"}, {"bufferView" : 2, "byteOffset" : 12, "componentType" : 5126, "count" : 66, "type" : "VEC3", "max" : [0.7071120142936707, -0.7071077227592468, 0], "min" : [-0.7071119546890259, -1.0000044107437134, 0], "name" : "NORMAL"}, {"bufferView" : 2, "byteOffset" : 24, "componentType" : 5126, "count" : 66, "type" : "VEC2", "max" : [0.41181886196136475, 0.9922663569450378], "min" : [-0.42971667647361755, -0.5170468091964722], "name" : "TEXCOORD_0"}, {"bufferView" : 0, "byteOffset" : 35208, "componentType" : 5123, "count" : 2568, "type" : "SCALAR", "max" : [2567], "min" : [0]}, {"bufferView" : 3, "byteOffset" : 0, "componentType" : 5126, "count" : 2568, "type" : "VEC3", "max" : [609.9999389648438, 170.00009155273438, 336.99981689453125], "min" : [-609.9999389648438, -214.99996948242188, -250.8004608154297], "name" : "POSITION"}, {"bufferView" : 3, "byteOffset" : 12, "componentType" : 5126, "count" : 2568, "type" : "VEC3", "max" : [1.0000044107437134, 1.0000044107437134, 1.0000044107437134], "min" : [-1.0000044107437134, -1.0000044107437134, -1.0000044107437134], "name" : "NORMAL"}, {"bufferView" : 3, "byteOffset" : 24, "componentType" : 5126, "count" : 2568, "type" : "VEC2", "max" : [-0.03710675239562988, -0.8511114120483398], "min" : [-0.32566404342651367, -1.8481743335723877], "name" : "TEXCOORD_0"}, {"bufferView" : 0, "byteOffset" : 40344, "componentType" : 5123, "count" : 528, "type" : "SCALAR", "max" : [527], "min" : [0]}, {"bufferView" : 4, "byteOffset" : 0, "componentType" : 5126, "count" : 528, "type" : "VEC3", "max" : [505.5, 165.49996948242188, -250.8004608154297], "min" : [-505.5, -155.49981689453125, -254.9991455078125], "name" : "POSITION"}, {"bufferView" : 4, "byteOffset" : 12, "componentType" : 5126, "count" : 528, "type" : "VEC3", "max" : [1.0000044107437134, 1.0000044107437134, 1.0000044107437134], "min" : [-1.0000044107437134, -1.0000044107437134, -1.0000044107437134], "name" : "NORMAL"}, {"bufferView" : 4, "byteOffset" : 24, "componentType" : 5126, "count" : 528, "type" : "VEC2", "max" : [-0.10514187812805176, -0.9555220603942871], "min" : [-0.3232567310333252, -1.8394618034362793], "name" : "TEXCOORD_0"}], "asset" : {"generator" : "Aspose.3D 23.11.1", "version" : "2.0"}, "buffers" : [{"uri" : "data:application/octet-stream;base64,", "byteLength" : 703820}], "bufferViews" : [{"buffer" : 0, "byteOffset" : 0, "byteLength" : 41400, "target" : 34963}, {"buffer" : 0, "byteOffset" : 41404, "byteLength" : 561216, "byteStride" : 32, "target" : 34962}, {"buffer" : 0, "byteOffset" : 602624, "byteLength" : 2112, "byteStride" : 32, "target" : 34962}, {"buffer" : 0, "byteOffset" : 604740, "byteLength" : 82176, "byteStride" : 32, "target" : 34962}, {"buffer" : 0, "byteOffset" : 686920, "byteLength" : 16896, "byteStride" : 32, "target" : 34962}], "materials" : [{"name" : "Space_Wood_Oak", "pbrMetallicRoughness" : {"baseColorFactor" : [0.3529411852359772, 0.3529411852359772, 0.3529411852359772, 1], "metallicFactor" : 1, "roughnessFactor" : 1}, "emissiveFactor" : [0, 0, 0], "alphaMode" : "OPAQUE", "doubleSided" : false}, {"name" : "Space_Wood_Chevron", "pbrMetallicRoughness" : {"baseColorFactor" : [0.3529411852359772, 0.3529411852359772, 0.3529411852359772, 1], "metallicFactor" : 1, "roughnessFactor" : 1}, "emissiveFactor" : [0, 0, 0], "alphaMode" : "OPAQUE", "doubleSided" : false}, {"name" : "Metall_Black", "pbrMetallicRoughness" : {"baseColorFactor" : [0.01568627543747425, 0.01568627543747425, 0.01568627543747425, 1], "metallicFactor" : 1, "roughnessFactor" : 1}, "emissiveFactor" : [0, 0, 0], "alphaMode" : "OPAQUE", "doubleSided" : false}, {"name" : "Plastic", "pbrMetallicRoughness" : {"baseColorFactor" : [0.0117647061124444, 0.0117647061124444, 0.0117647061124444, 1], "metallicFactor" : 1, "roughnessFactor" : 1}, "emissiveFactor" : [0, 0, 0], "alphaMode" : "OPAQUE", "doubleSided" : false}], "meshes" : [{"primitives" : [{"attributes" : {"POSITION" : 1, "NORMAL" : 2, "TEXCOORD_0" : 3}, "indices" : 0, "material" : 0, "mode" : 4}, {"attributes" : {"POSITION" : 5, "NORMAL" : 6, "TEXCOORD_0" : 7}, "indices" : 4, "material" : 1, "mode" : 4}, {"attributes" : {"POSITION" : 9, "NORMAL" : 10, "TEXCOORD_0" : 11}, "indices" : 8, "material" : 2, "mode" : 4}, {"attributes" : {"POSITION" : 13, "NORMAL" : 14, "TEXCOORD_0" : 15}, "indices" : 12, "material" : 3, "mode" : 4}], "name" : ""}], "nodes" : [{"matrix" : [1, 0, 0, 0, 0, 6.123233995736766E-17, -1, 0, 0, 1, 6.123233995736766E-17, 0, 0, 255.80047607421875, 199.99993896484378, 1], "mesh" : 0, "name" : "Dresser_Space_001"}], "scene" : 0, "scenes" : [{"nodes" : [0]}]}